# AST/ASF file generated using VICON BodyLanguage
# -----------------------------------------------
:version 1.10
:name VICON
:units
  mass 1.0
  length 0.45
  angle deg
:documentation
   .ast/.asf automatically generated from VICON data using
   VICON BodyBuilder and BodyLanguage model FoxedUp or BRILLIANT.MOD
:root
   order TX TY TZ RX RY RZ
   axis XYZ
   position 0 0 0  
   orientation 0 0 0 
:bonedata
  begin
     id 1 
     name lhipjoint
     direction 0.692814 -0.645514 0.321437 
     length 2.38754 
     axis 0 0 0  XYZ
  end
  begin
     id 2 
     name lfemur
     direction 0.34202 -0.939693 0  
     length 6.41921  
     axis 0 0 20  XYZ
    dof rx ry rz
    limits (-160.0 20.0)
           (-70.0 70.0)
           (-60.0 70.0)
  end
  begin
     id 3 
     name ltibia
     direction 0.34202 -0.939693 0   
     length 6.98247   
     axis 0 0 20   XYZ
    dof rx
    limits (-10.0 170.0)
  end
  begin
     id 4 
     name lfoot
     direction 0.0947186 -0.260237 0.960888   
     length 1.83034   
     axis -90 7.62852e-016 20   XYZ
    dof rx rz
    limits (-45.0 90.0)
           (-70.0 20.0)
  end
  begin
     id 5 
     name ltoes
     direction 1.53538e-011 -4.21952e-011 1   
     length 0.920499   
     axis -90 7.62852e-016 20   XYZ
    dof rx
    limits (-90.0 20.0)
  end
  begin
     id 6 
     name rhipjoint
     direction -0.631686 -0.693949 0.345555   
     length 2.2209  
     axis 0 0 0  XYZ 
  end
  begin
     id 7 
     name rfemur
     direction -0.34202 -0.939693 0   
     length 6.49542   
     axis 0 0 -20   XYZ
    dof rx ry rz
    limits (-160.0 20.0)
           (-70.0 70.0)
           (-70.0 60.0)
  end
  begin
     id 8 
     name rtibia
     direction -0.34202 -0.939693 0   
     length 7.21712   
     axis 0 0 -20   XYZ
    dof rx
    limits (-10.0 170.0)
 end
 begin
     id 9 
     name rfoot
     direction -0.0825378 -0.226771 0.970444   
     length 1.89724  
     axis -90 -7.62852e-016 -20   XYZ
    dof rx rz
    limits (-45.0 90.0)
           (-20.0 70.0)
  end
  begin
     id 10 
     name rtoes
     direction -1.53515e-011 -4.22016e-011 1   
     length 0.955868   
     axis -90 -7.62852e-016 -20   XYZ
    dof rx
    limits (-90.0 20.0)
  end
  begin
     id 11 
     name lowerback
     direction -0.0104711 0.984802 -0.173368   
     length 1.84931   
     axis 0 0 0   XYZ
    dof rx ry rz
    limits (-20.0 45.0)
           (-30.0 30.0)
           (-30.0 30.0)
  end
  begin
     id 12 
     name upperback
     direction -0.00286433 0.999996 -0.000382853   
     length 1.85768   
     axis 0 0 0   XYZ
    dof rx ry rz
    limits (-20.0 45.0)
           (-30.0 30.0)
           (-30.0 30.0)
  end
  begin
     id 13 
     name thorax
     direction 0.00167534 0.996793 0.0800069   
     length 1.92   
     axis 0 0 0   XYZ
    dof rx ry rz
    limits (-20.0 45.0)
           (-30.0 30.0)
           (-30.0 30.0)
  end
  begin
     id 14 
     name lowerneck
     direction -0.0672491 0.995415 0.068018   
     length 1.58923   
     axis 0 0 0   XYZ
    dof rx ry rz
    limits (-20.0 45.0)
           (-30.0 30.0)
           (-30.0 30.0)
  end
  begin
     id 15 
     name upperneck
     direction 0.0958019 0.982476 -0.159884   
     length 1.60189   
     axis 0 0 0   XYZ
    dof rx ry rz
    limits (-20.0 45.0)
           (-30.0 30.0)
           (-30.0 30.0)
  end
  begin
     id 16
     name head
     direction 0.032989 0.997338 -0.0650226  
     length 1.61681  
     axis 0 0 0   XYZ
    dof rx ry rz
    limits (-20.0 45.0)
           (-30.0 30.0)
           (-30.0 30.0)
  end
  begin
     id 17 
     name lclavicle
     direction 0.954279 0.298875 -0.00496069  
     length 2.99449  
     axis 0 0 0   XYZ
    dof ry rz
    limits (-20.0 10.0)
           (0.0 20.0)
  end
  begin
     id 18 
     name lhumerus
     direction 1 -4.48985e-011 -4.2057e-027   
     length 4.79185   
     axis 180 -30 -90   XYZ
    dof rx ry rz
    limits (-60.0 90.0)
           (-90.0 90.0)
           (-90.0 90.0)
  end
  begin
     id 19
     name lradius
     direction 1 -4.48945e-011 1.15441e-028   
     length 2.65553   
     axis 180 -30 -90   XYZ
    dof rx
    limits (-10.0 170.0)
  end
  begin
     id 20
     name lwrist
     direction 1 -4.4899e-011 4.8894e-028   
     length 1.32777   
     axis -2.56392e-016 90 90   XYZ
    dof ry
    limits (-180.0 0.0)
 end
  begin
     id 21 
     name lhand
     direction 1 -4.48908e-011 9.7788e-028   
     length 0.743904   
     axis -6.23971e-016 90 90   XYZ
    dof rx rz
    limits (-90.0 90.0)
           (-45.0 45.0)
  end
  begin
     id 22 
     name lfingers
     direction 1 -4.49068e-011 1.95576e-027   
     length 0.599754   
     axis -1.24794e-015 90 90   XYZ
    dof rx
    limits (0.0 90.0)
  end
  begin
     id 23
     name lthumb
     direction 0.707107 -6.34883e-011 0.707107   
     length 0.861131   
     axis -90 45 2.85299e-015   XYZ
    dof rx rz
    limits (-45.0 45.0)
           (-45.0 45.0)
  end
  begin
     id 24 
     name rclavicle
     direction -0.957921 0.286916 0.00811568   
     length 3.06817  
     axis 0 0 0   XYZ 
    dof ry rz
    limits (-10.0 20.0)
           (-20.0 0.0)
  end
  begin
     id 25 
     name rhumerus
     direction -1 -4.48971e-011 -3.07942e-027  
     length 4.77254   
     axis 180 30 90   XYZ
    dof rx ry rz
    limits (-90.0 60.0)
           (-90.0 90.0)
           (-90.0 90.0)
  end
  begin
     id 26 
     name rradius
     direction -1 -4.48957e-011 -9.6815e-028   
     length 2.75995   
     axis 180 30 90   XYZ
    dof rx
    limits (-10.0 170.0)
  end
  begin
     id 27 
     name rwrist
     direction -1 -4.48979e-011 4.8894e-028   
     length 1.37997   
     axis -2.56392e-016 -90 -90   XYZ
    dof ry
    limits (-180.0 0.0)
  end
  begin
     id 28
     name rhand
     direction -1 -4.48906e-011 9.7788e-028   
     length 0.701619   
     axis -6.23971e-016 -90 -90   XYZ
    dof rx rz
    limits (-90.0 90.0)
           (-45.0 45.0)
  end
  begin
     id 29
     name rfingers
     direction -1 -4.49018e-011 1.95576e-027   
     length 0.565663   
     axis -1.24794e-015 -90 -90   XYZ
    dof rx
    limits (0.0 90.0)
  end
  begin
     id 30
     name rthumb
     direction -0.707107 -6.34881e-011 0.707107   
     length 0.812183   
     axis -90 -45 -2.85299e-015   XYZ
    dof rx rz
    limits (-45.0 45.0)
           (-45.0 45.0)
  end
:hierarchy
  begin
    root lhipjoint rhipjoint lowerback
    lhipjoint lfemur
    lfemur ltibia
    ltibia lfoot
    lfoot ltoes
    rhipjoint rfemur
    rfemur rtibia
    rtibia rfoot
    rfoot rtoes
    lowerback upperback
    upperback thorax
    thorax lowerneck lclavicle rclavicle
    lowerneck upperneck
    upperneck head
    lclavicle lhumerus
    lhumerus lradius
    lradius lwrist
    lwrist lhand lthumb
    lhand lfingers
    rclavicle rhumerus
    rhumerus rradius
    rradius rwrist
    rwrist rhand rthumb
    rhand rfingers
  end

#!OML:ASF F:\VICON\USERDATA\INSTALL\rory3\rory3.ASF
:FULLY-SPECIFIED
:DEGREES
567
root 0.0735955 15.1974 -1.80799 3.78447 2.36618 0.452562
lowerback 24.0531 1.11802 -0.370295
upperback 8.25541 1.38378 0.242514
thorax -4.31863 0.676238 0.0998009
lowerneck -10.275 -1.55894 -9.31934
upperneck 7.81891 -1.45836 7.15334
head 4.13239 -0.60594 3.6306
rclavicle 1.23246e-014 6.95746e-015
rhumerus -14.8035 8.93077 -78.5462
rradius 115.693
rwrist 23.0324
rhand 14.1231 12.1656
rfingers 7.12502
rthumb 39.0256 -13.3471
lclavicle 1.23246e-014 6.95746e-015
lhumerus -14.1539 -9.02252 78.4838
lradius 115.398
lwrist -7.63124
lhand 9.49873 23.2994
lfingers 7.12502
lthumb 34.6508 49.9363
rfemur -30.148 4.13732 15.2992
rtibia 49.3724
rfoot -18.1354 -9.94973
rtoes -19.8712
lfemur -29.4558 -3.76672 -15.1611
ltibia 44.9523
lfoot -13.9536 -1.70603
ltoes -15.3083
568
root 0.0732675 15.1948 -1.80868 3.80315 2.39113 0.517776
lowerback 24.0291 1.11099 -0.411393
upperback 8.26565 1.36482 0.225684
thorax -4.29595 0.666952 0.110736
lowerneck -9.88052 -1.58958 -9.45736
upperneck 7.43422 -1.52583 7.40333
head 3.9589 -0.634084 3.7247
rclavicle -2.98177e-016 -3.57812e-015
rhumerus -14.7219 8.99286 -78.5262
rradius 115.702
rwrist 22.9806
rhand 13.7784 11.9127
rfingers 7.12502
rthumb 38.7005 -13.6925
lclavicle -2.98177e-016 -3.57812e-015
lhumerus -14.1319 -8.94809 78.3525
lradius 115.384
lwrist -7.57937
lhand 9.46439 23.3147
lfingers 7.12502
lthumb 34.6182 49.9591
rfemur -30.2442 4.07857 15.2279
rtibia 49.475
rfoot -18.1236 -9.95025
rtoes -19.7694
lfemur -29.5158 -3.79375 -15.2302
ltibia 45.002
lfoot -13.9695 -1.7312
ltoes -14.9653
569
root 0.0731434 15.1939 -1.80938 3.80137 2.43891 0.54977
lowerback 24.0024 1.10167 -0.393539
upperback 8.30061 1.35731 0.223963
thorax -4.24406 0.663692 0.101576
lowerneck -9.52235 -1.67296 -9.63968
upperneck 7.07258 -1.65687 7.67138
head 3.80527 -0.694271 3.8282
rclavicle 1.86858e-014 6.16232e-015
rhumerus -14.6031 9.01026 -78.4146
rradius 115.742
rwrist 22.8668
rhand 13.4557 11.6317
rfingers 7.12502
rthumb 38.3961 -14.0586
lclavicle 1.86858e-014 6.16232e-015
lhumerus -14.0055 -8.92424 78.2538
lradius 115.348
lwrist -7.4859
lhand 9.39732 23.2191
lfingers 7.12502
lthumb 34.5545 49.878
rfemur -30.3047 4.01967 15.1882
rtibia 49.5776
rfoot -18.1649 -9.9213
rtoes -19.4102
lfemur -29.5574 -3.80837 -15.2706
ltibia 45.0714
lfoot -14.0353 -1.73016
ltoes -15.3304
570
root 0.0727542 15.1888 -1.80984 3.76008 2.48146 0.48373
lowerback 24.0133 1.08596 -0.326357
upperback 8.3575 1.35582 0.278354
thorax -4.18716 0.663044 0.122811
lowerneck -9.29064 -1.76432 -9.84349
upperneck 6.82131 -1.78753 7.92997
head 3.70688 -0.754327 3.93334
rclavicle -6.55989e-015 1.64991e-014
rhumerus -14.4145 9.05838 -78.2528
rradius 115.747
rwrist 22.7621
rhand 13.4933 11.6012
rfingers 7.12502
rthumb 38.4316 -14.0793
lclavicle -6.55989e-015 1.64991e-014
lhumerus -13.8495 -8.87794 78.1971
lradius 115.35
lwrist -7.38099
lhand 9.31745 23.2613
lfingers 7.12502
lthumb 34.4787 49.9375
rfemur -30.3169 3.99562 15.2605
rtibia 49.6814
rfoot -18.2114 -9.92015
rtoes -19.3126
lfemur -29.5748 -3.79639 -15.1968
ltibia 45.172
lfoot -14.1047 -1.78013
ltoes -15.6274
571
root 0.0736247 15.1835 -1.81128 3.72407 2.52552 0.347198
lowerback 24.0032 1.06388 -0.166033
upperback 8.43025 1.36763 0.34436
thorax -4.10092 0.669806 0.100385
lowerneck -9.1635 -1.86319 -10.0073
upperneck 6.62597 -1.92272 8.15131
head 3.64308 -0.816068 4.02043
rclavicle 1.59028e-015 -7.35503e-015
rhumerus -14.1162 9.13747 -78.1158
rradius 115.632
rwrist 22.7494
rhand 12.9671 11.399
rfingers 7.12502
rthumb 37.9348 -14.4179
lclavicle 1.59028e-015 -7.35503e-015
lhumerus -13.6887 -8.89959 78.1289
lradius 115.397
lwrist -7.34347
lhand 9.21356 23.2357
lfingers 7.12502
lthumb 34.3801 49.9343
rfemur -30.308 3.95965 15.4113
rtibia 49.7829
rfoot -18.1961 -9.85387
rtoes -18.8209
lfemur -29.6296 -3.74204 -15.054
ltibia 45.2983
lfoot -14.092 -1.88883
ltoes -15.4858
572
root 0.0745494 15.1772 -1.81277 3.71437 2.54431 0.278852
lowerback 23.9747 1.06266 -0.0561194
upperback 8.48514 1.3916 0.360035
thorax -4.02488 0.682761 0.049319
lowerneck -9.01359 -1.99208 -10.1507
upperneck 6.41271 -2.10468 8.40304
head 3.57534 -0.899641 4.11103
rclavicle 2.98177e-015 3.77691e-015
rhumerus -13.9054 9.19914 -77.986
rradius 115.565
rwrist 22.7759
rhand 12.3735 11.06
rfingers 7.12502
rthumb 37.3739 -14.9069
lclavicle 2.98177e-015 3.77691e-015
lhumerus -13.5508 -8.95963 78.0086
lradius 115.45
lwrist -7.35582
lhand 8.99375 23.2681
lfingers 7.12502
lthumb 34.1713 50.0137
rfemur -30.2898 3.92347 15.4867
rtibia 49.886
rfoot -18.165 -9.65623
rtoes -17.6077
lfemur -29.7131 -3.67238 -14.9885
ltibia 45.4402
lfoot -14.0698 -2.02829
ltoes -15.1188
573
root 0.0733612 15.1718 -1.81435 3.71029 2.56642 0.287751
lowerback 23.9533 1.08342 -0.0556234
upperback 8.54074 1.41856 0.362119
thorax -3.95368 0.696202 0.0451654
lowerneck -8.94793 -2.16484 -10.3358
upperneck 6.28398 -2.34131 8.71782
head 3.55442 -1.00738 4.22543
rclavicle -1.98785e-016 -9.93923e-015
rhumerus -13.7555 9.23121 -77.8292
rradius 115.603
rwrist 22.7825
rhand 12.5298 10.8599
rfingers 7.12502
rthumb 37.5216 -15.0679
lclavicle -1.98785e-016 -9.93923e-015
lhumerus -13.3803 -8.9877 77.8972
lradius 115.463
lwrist -7.34119
lhand 8.76812 23.3094
lfingers 7.12502
lthumb 33.957 50.1027
rfemur -30.3499 3.9053 15.4842
rtibia 49.9825
rfoot -18.1785 -9.675
rtoes -17.7897
lfemur -29.7979 -3.69009 -14.9857
ltibia 45.5644
lfoot -14.1195 -2.04882
ltoes -15.0768
574
root 0.0717998 15.1653 -1.81621 3.70169 2.61715 0.287663
lowerback 23.9326 1.09731 -0.0527672
upperback 8.61227 1.43785 0.372019
thorax -3.86552 0.705934 0.0503489
lowerneck -8.85306 -2.38916 -10.6519
upperneck 6.06136 -2.63915 9.15092
head 3.51135 -1.14377 4.3947
rclavicle -1.98785e-015 -3.97569e-016
rhumerus -13.5875 9.23581 -77.6572
rradius 115.625
rwrist 22.7305
rhand 12.7896 10.8121
rfingers 7.12502
rthumb 37.7671 -15.0501
lclavicle -1.98785e-015 -3.97569e-016
lhumerus -13.1678 -9.04449 77.8045
lradius 115.421
lwrist -7.29917
lhand 8.54885 23.3736
lfingers 7.12502
lthumb 33.7487 50.2128
rfemur -30.466 3.88454 15.4804
rtibia 50.0423
rfoot -18.2388 -9.84691
rtoes -18.909
lfemur -29.8773 -3.76823 -14.9696
ltibia 45.6748
lfoot -14.1534 -2.01593
ltoes -15.1863
575
root 0.0699445 15.1604 -1.81817 3.70279 2.68586 0.291438
lowerback 23.9414 1.09918 -0.0609786
upperback 8.64461 1.44015 0.394289
thorax -3.83532 0.706896 0.078663
lowerneck -8.63759 -2.63477 -11.1453
upperneck 5.76202 -2.96232 9.71132
head 3.43525 -1.29433 4.63254
rclavicle 5.1684e-015 -2.78299e-015
rhumerus -13.5008 9.24284 -77.4954
rradius 115.636
rwrist 22.6848
rhand 12.8469 10.9123
rfingers 7.12502
rthumb 37.8213 -14.9354
lclavicle 5.1684e-015 -2.78299e-015
lhumerus -13.0388 -9.09448 77.7285
lradius 115.378
lwrist -7.26882
lhand 8.46217 23.3495
lfingers 7.12502
lthumb 33.6663 50.2067
rfemur -30.5423 3.83896 15.482
rtibia 50.0877
rfoot -18.241 -9.98043
rtoes -19.5887
lfemur -29.9482 -3.80437 -14.9628
ltibia 45.7615
lfoot -14.1836 -2.05176
ltoes -15.1209
576
root 0.068317 15.1592 -1.81918 3.65639 2.72489 0.192472
lowerback 24.0303 1.0846 -0.0117834
upperback 8.6429 1.43656 0.462768
thorax -3.8817 0.704639 0.123776
lowerneck -8.46304 -2.80802 -11.3952
upperneck 5.60415 -3.1977 9.986
head 3.39322 -1.40842 4.74641
rclavicle 2.00773e-014 -5.96354e-015
rhumerus -13.5042 9.33291 -77.3999
rradius 115.63
rwrist 22.7253
rhand 12.764 10.9438
rfingers 7.12502
rthumb 37.743 -14.9249
lclavicle 2.00773e-014 -5.96354e-015
lhumerus -13.0275 -9.08022 77.685
lradius 115.426
lwrist -7.26392
lhand 8.47824 23.3666
lfingers 7.12502
lthumb 33.6816 50.2205
rfemur -30.5016 3.84619 15.6019
rtibia 50.112
rfoot -18.2496 -10.0021
rtoes -19.5227
lfemur -29.9504 -3.77181 -14.8474
ltibia 45.8253
lfoot -14.1812 -2.12332
ltoes -15.1052
577
root 0.0687196 15.1574 -1.81889 3.61469 2.74831 0.18273
lowerback 24.1037 1.07654 -0.00430368
upperback 8.65434 1.42822 0.466342
thorax -3.90522 0.700578 0.124459
lowerneck -8.41764 -2.97956 -11.3815
upperneck 5.57398 -3.44403 10.1157
head 3.40603 -1.52559 4.76991
rclavicle 4.17448e-015 -7.15625e-015
rhumerus -13.4692 9.39122 -77.3504
rradius 115.633
rwrist 22.787
rhand 12.7158 11.0398
rfingers 7.12502
rthumb 37.6974 -14.8411
lclavicle 4.17448e-015 -7.15625e-015
lhumerus -12.9789 -9.09968 77.6202
lradius 115.456
lwrist -7.21853
lhand 8.47794 23.3909
lfingers 7.12502
lthumb 33.6813 50.2449
rfemur -30.4719 3.81273 15.6181
rtibia 50.1643
rfoot -18.282 -10.0245
rtoes -19.5892
lfemur -29.9288 -3.77164 -14.8402
ltibia 45.8495
lfoot -14.1755 -2.17708
ltoes -14.8502
